# xmcd
#
# Track frame offsets: 
#        150
#        18105
#        38885
#        58818
#        77095
#        97795
#        116529
#        134429
#        161555
#        179392
#
# Disc length: 2674 seconds
#
# Revision: 0
# Processed by: cddbd v1.5.2PL0 Copyright (c) Steve Scherf et al.
# Submitted via: ExactAudioCopy v0.99pb3
#
DISCID=770a700a
DTITLE=James Gear - Don't Give Up
DYEAR=1998
DGENRE=Gospel
TTITLE0=Because You Loved Me (Gospel Mix)
TTITLE1=Don't Give Up
TTITLE2=Beautiful Black People (Radio Mix)
TTITLE3=You Said
TTITLE4=Lord How I Need You
TTITLE5=Adversity
TTITLE6=Because You Loved Me (Urban\\Pop Mix)
TTITLE7=Song Of Repentance
TTITLE8=Beautiful Black People (Urban\\Pop Mix)
TTITLE9=I Surrender
EXTD=
EXTT0=
EXTT1=
EXTT2=
EXTT3=
EXTT4=
EXTT5=
EXTT6=
EXTT7=
EXTT8=
EXTT9=
PLAYORDER=
